<svg viewBox="0 0 800 600" xmlns="http://www.w3.org/2000/svg">
  <defs>
    <linearGradient id="officeGradient" x1="0%" y1="0%" x2="100%" y2="100%">
      <stop offset="0%" style="stop-color:#f8f9fa" />
      <stop offset="100%" style="stop-color:#e9ecef" />
    </linearGradient>
    <linearGradient id="furnitureGradient" x1="0%" y1="0%" x2="100%" y2="100%">
      <stop offset="0%" style="stop-color:#1e3a8a" />
      <stop offset="100%" style="stop-color:#3b82f6" />
    </linearGradient>
  </defs>
  
  <!-- Background -->
  <rect width="800" height="600" fill="url(#officeGradient)"/>
  
  <!-- Floor -->
  <rect x="0" y="400" width="800" height="200" fill="#d1d5db"/>
  
  <!-- Back wall -->
  <rect x="0" y="100" width="800" height="300" fill="#f3f4f6"/>
  
  <!-- Elegant office furniture -->
  <!-- Desk -->
  <rect x="200" y="350" width="400" height="20" fill="url(#furnitureGradient)" rx="10"/>
  <rect x="210" y="370" width="380" height="60" fill="#374151" rx="5"/>
  
  <!-- Chair -->
  <circle cx="400" cy="320" r="25" fill="#1e3a8a"/>
  <rect x="390" y="295" width="20" height="50" fill="#1e3a8a" rx="10"/>
  
  <!-- Computer/laptop -->
  <rect x="350" y="340" width="100" height="60" fill="#111827" rx="5"/>
  <rect x="355" y="345" width="90" height="50" fill="#d4af37" opacity="0.3"/>
  
  <!-- Fashion sketches on wall -->
  <g opacity="0.6">
    <rect x="100" y="150" width="80" height="120" fill="white" stroke="#d1d5db" stroke-width="2"/>
    <path d="M120 180 Q140 170 160 180 L155 220 Q160 250 155 280 L145 300 Q135 310 125 300 L120 280 Q115 250 120 220 Z" fill="#1e3a8a" opacity="0.3"/>
    
    <rect x="620" y="170" width="80" height="120" fill="white" stroke="#d1d5db" stroke-width="2"/>
    <path d="M640 200 Q660 190 680 200 L675 240 Q680 270 675 300 L665 320 Q655 330 645 320 L640 300 Q635 270 640 240 Z" fill="#d4af37" opacity="0.3"/>
  </g>
  
  <!-- Professional lighting -->
  <ellipse cx="300" cy="120" rx="40" ry="10" fill="#fbbf24" opacity="0.4"/>
  <ellipse cx="500" cy="120" rx="40" ry="10" fill="#fbbf24" opacity="0.4"/>
  
  <!-- Elegant decor elements -->
  <g opacity="0.5">
    <!-- Plant -->
    <rect x="50" y="380" width="20" height="40" fill="#16a34a"/>
    <circle cx="60" cy="370" r="15" fill="#22c55e"/>
    <circle cx="55" cy="365" r="8" fill="#16a34a"/>
    <circle cx="65" cy="365" r="8" fill="#16a34a"/>
    
    <!-- Award/trophy -->
    <rect x="720" y="370" width="30" height="40" fill="#d4af37"/>
    <circle cx="735" cy="365" r="12" fill="#fbbf24"/>
  </g>
  
  <!-- Window with city view -->
  <rect x="0" y="150" width="60" height="150" fill="#bfdbfe" opacity="0.6"/>
  <rect x="10" y="160" width="40" height="130" fill="#dbeafe" opacity="0.8"/>
  <!-- Window frame -->
  <rect x="0" y="150" width="60" height="150" fill="none" stroke="#6b7280" stroke-width="3"/>
  <line x1="30" y1="150" x2="30" y2="300" stroke="#6b7280" stroke-width="2"/>
  <line x1="0" y1="225" x2="60" y2="225" stroke="#6b7280" stroke-width="2"/>
</svg>