<svg viewBox="0 0 400 300" xmlns="http://www.w3.org/2000/svg">
  <defs>
    <linearGradient id="runwayGradient" x1="0%" y1="0%" x2="100%" y2="100%">
      <stop offset="0%" style="stop-color:#1e3a8a" />
      <stop offset="100%" style="stop-color:#3b82f6" />
    </linearGradient>
    <linearGradient id="spotlightGradient" x1="0%" y1="0%" x2="100%" y2="100%">
      <stop offset="0%" style="stop-color:#fbbf24;stop-opacity:0.8" />
      <stop offset="100%" style="stop-color:#d4af37;stop-opacity:0.4" />
    </linearGradient>
  </defs>
  
  <!-- Background - runway scene -->
  <rect width="400" height="300" fill="#1f2937"/>
  
  <!-- Runway platform -->
  <polygon points="0,200 100,180 300,180 400,200 400,300 0,300" fill="#374151"/>
  <polygon points="100,180 300,180 320,160 80,160" fill="#4b5563"/>
  
  <!-- Runway center line -->
  <rect x="180" y="160" width="40" height="140" fill="#d4af37" opacity="0.6"/>
  <rect x="190" y="170" width="20" height="10" fill="white"/>
  <rect x="190" y="190" width="20" height="10" fill="white"/>
  <rect x="190" y="210" width="20" height="10" fill="white"/>
  <rect x="190" y="230" width="20" height="10" fill="white"/>
  <rect x="190" y="250" width="20" height="10" fill="white"/>
  <rect x="190" y="270" width="20" height="10" fill="white"/>
  
  <!-- Model on runway -->
  <g transform="translate(200, 120)">
    <!-- Body -->
    <path d="M0 40 Q10 35 20 40 L18 70 Q20 90 18 110 L15 130 Q12 140 8 140 Q5 140 2 130 L0 110 Q-2 90 0 70 Z" fill="url(#runwayGradient)"/>
    <!-- Head -->
    <circle cx="10" cy="30" r="12" fill="#fde68a"/>
    <!-- Hair -->
    <ellipse cx="10" cy="25" rx="14" ry="18" fill="#92400e"/>
    <!-- Arms -->
    <ellipse cx="-5" cy="60" rx="8" ry="3" fill="url(#runwayGradient)" transform="rotate(-30)"/>
    <ellipse cx="25" cy="60" rx="8" ry="3" fill="url(#runwayGradient)" transform="rotate(30)"/>
    <!-- Fashion details -->
    <rect x="5" y="50" width="10" height="20" fill="#d4af37" opacity="0.7"/>
  </g>
  
  <!-- Spotlights -->
  <g opacity="0.6">
    <ellipse cx="150" cy="200" rx="30" ry="60" fill="url(#spotlightGradient)"/>
    <ellipse cx="250" cy="200" rx="30" ry="60" fill="url(#spotlightGradient)"/>
    <ellipse cx="200" cy="180" rx="40" ry="80" fill="url(#spotlightGradient)"/>
  </g>
  
  <!-- Audience silhouettes -->
  <g fill="#1f2937" opacity="0.8">
    <!-- Left side audience -->
    <circle cx="50" cy="190" r="8"/>
    <rect x="45" y="195" width="10" height="15" rx="2"/>
    
    <circle cx="30" cy="195" r="7"/>
    <rect x="26" y="200" width="8" height="12" rx="2"/>
    
    <circle cx="70" cy="185" r="9"/>
    <rect x="65" y="190" width="10" height="18" rx="2"/>
    
    <!-- Right side audience -->
    <circle cx="350" cy="190" r="8"/>
    <rect x="345" y="195" width="10" height="15" rx="2"/>
    
    <circle cx="370" cy="195" r="7"/>
    <rect x="366" y="200" width="8" height="12" rx="2"/>
    
    <circle cx="330" cy="185" r="9"/>
    <rect x="325" y="190" width="10" height="18" rx="2"/>
  </g>
  
  <!-- Fashion show backdrop -->
  <rect x="0" y="100" width="400" height="60" fill="#111827" opacity="0.3"/>
  
  <!-- Lighting equipment -->
  <g fill="#6b7280" opacity="0.7">
    <!-- Lights on truss -->
    <rect x="100" y="80" width="200" height="8" fill="#374151"/>
    <circle cx="130" cy="84" r="6" fill="#fbbf24" opacity="0.5"/>
    <circle cx="170" cy="84" r="6" fill="#fbbf24" opacity="0.5"/>
    <circle cx="210" cy="84" r="6" fill="#fbbf24" opacity="0.5"/>
    <circle cx="250" cy="84" r="6" fill="#fbbf24" opacity="0.5"/>
    <circle cx="270" cy="84" r="6" fill="#fbbf24" opacity="0.5"/>
  </g>
  
  <!-- Camera/photography equipment -->
  <g transform="translate(320, 160)">
    <rect x="0" y="0" width="15" height="10" fill="#374151" rx="2"/>
    <circle cx="7.5" cy="5" r="4" fill="#1f2937"/>
    <circle cx="7.5" cy="5" r="2" fill="#6b7280"/>
    <!-- Tripod legs -->
    <line x1="7.5" y1="10" x2="5" y2="25" stroke="#4b5563" stroke-width="2"/>
    <line x1="7.5" y1="10" x2="10" y2="25" stroke="#4b5563" stroke-width="2"/>
    <line x1="7.5" y1="10" x2="7.5" y2="25" stroke="#4b5563" stroke-width="2"/>
  </g>
  
  <!-- Photographer -->
  <g transform="translate(300, 170)">
    <circle cx="0" cy="0" r="6" fill="#fde68a"/>
    <rect x="-5" y="5" width="10" height="15" fill="#1e3a8a" rx="2"/>
    <rect x="-3" y="0" width="6" height="8" fill="#374151" rx="1"/>
  </g>
  
  <!-- Motion lines showing movement -->
  <g stroke="#d4af37" stroke-width="1" opacity="0.4" fill="none">
    <path d="M180 140 Q190 135 200 140"/>
    <path d="M185 145 Q195 140 205 145"/>
    <path d="M175 150 Q185 145 195 150"/>
  </g>
  
  <!-- Fashion show atmosphere -->
  <g opacity="0.3">
    <!-- Sparkle effects -->
    <circle cx="160" cy="100" r="2" fill="#fbbf24"/>
    <circle cx="240" cy="110" r="1.5" fill="#d4af37"/>
    <circle cx="220" cy="95" r="1" fill="#fbbf24"/>
    <circle cx="180" cy="105" r="1.5" fill="#d4af37"/>
  </g>
</svg>