<svg viewBox="0 0 400 300" xmlns="http://www.w3.org/2000/svg">
  <defs>
    <linearGradient id="studioGradient" x1="0%" y1="0%" x2="100%" y2="100%">
      <stop offset="0%" style="stop-color:#f8f9fa" />
      <stop offset="100%" style="stop-color:#e9ecef" />
    </linearGradient>
    <linearGradient id="flashGradient" x1="0%" y1="0%" x2="100%" y2="100%">
      <stop offset="0%" style="stop-color:#fbbf24;stop-opacity:0.8" />
      <stop offset="100%" style="stop-color:#d4af37;stop-opacity:0.3" />
    </linearGradient>
  </defs>
  
  <!-- Background - photo studio -->
  <rect width="400" height="300" fill="url(#studioGradient)"/>
  
  <!-- Studio floor -->
  <rect x="0" y="220" width="400" height="80" fill="#d1d5db"/>
  
  <!-- Backdrop -->
  <rect x="50" y="80" width="300" height="140" fill="white" stroke="#6b7280" stroke-width="2"/>
  
  <!-- Model posing -->
  <g transform="translate(200, 120)">
    <!-- Body in elegant pose -->
    <path d="M-10 40 Q0 35 10 40 L8 70 Q12 85 8 100 L6 120 Q3 130 -3 130 Q-6 130 -8 120 L-10 100 Q-14 85 -10 70 Z" fill="url(#runwayGradient)"/>
    <!-- Head -->
    <circle cx="0" cy="30" r="10" fill="#fde68a"/>
    <!-- Hair -->
    <ellipse cx="0" cy="25" rx="12" ry="16" fill="#1f2937"/>
    <!-- Arms in pose -->
    <ellipse cx="-15" cy="55" rx="10" ry="4" fill="url(#runwayGradient)" transform="rotate(-45)"/>
    <ellipse cx="15" cy="65" rx="10" ry="4" fill="url(#runwayGradient)" transform="rotate(20)"/>
    <!-- Fashion outfit details -->
    <rect x="-5" y="50" width="10" height="15" fill="#d4af37" opacity="0.8"/>
    <circle cx="0" cy="75" r="3" fill="#1e3a8a"/>
  </g>
  
  <!-- Professional camera on tripod -->
  <g transform="translate(100, 180)">
    <!-- Camera body -->
    <rect x="0" y="0" width="25" height="15" fill="#374151" rx="3"/>
    <!-- Lens -->
    <circle cx="30" cy="7.5" r="8" fill="#1f2937"/>
    <circle cx="30" cy="7.5" r="5" fill="#6b7280"/>
    <circle cx="30" cy="7.5" r="2" fill="#d4af37"/>
    <!-- Tripod -->
    <line x1="12.5" y1="15" x2="8" y2="40" stroke="#4b5563" stroke-width="3"/>
    <line x1="12.5" y1="15" x2="17" y2="40" stroke="#4b5563" stroke-width="3"/>
    <line x1="12.5" y1="15" x2="12.5" y2="40" stroke="#4b5563" stroke-width="3"/>
  </g>
  
  <!-- Photographer -->
  <g transform="translate(120, 190)">
    <circle cx="0" cy="0" r="8" fill="#fde68a"/>
    <rect x="-6" y="7" width="12" height="20" fill="#1e3a8a" rx="2"/>
    <!-- Arms holding camera controls -->
    <ellipse cx="-10" cy="15" rx="6" ry="3" fill="#fde68a"/>
    <ellipse cx="10" cy="15" rx="6" ry="3" fill="#fde68a"/>
  </g>
  
  <!-- Studio lighting setup -->
  <g>
    <!-- Softbox light 1 -->
    <g transform="translate(80, 120)">
      <rect x="0" y="0" width="30" height="20" fill="white" stroke="#6b7280" stroke-width="2" rx="3"/>
      <rect x="5" y="5" width="20" height="10" fill="#fbbf24" opacity="0.6"/>
      <line x1="15" y1="20" x2="15" y2="40" stroke="#374151" stroke-width="3"/>
      <line x1="10" y1="40" x2="20" y2="40" stroke="#374151" stroke-width="2"/>
    </g>
    
    <!-- Softbox light 2 -->
    <g transform="translate(290, 110)">
      <rect x="0" y="0" width="30" height="20" fill="white" stroke="#6b7280" stroke-width="2" rx="3"/>
      <rect x="5" y="5" width="20" height="10" fill="#fbbf24" opacity="0.6"/>
      <line x1="15" y1="20" x2="15" y2="40" stroke="#374151" stroke-width="3"/>
      <line x1="10" y1="40" x2="20" y2="40" stroke="#374151" stroke-width="2"/>
    </g>
    
    <!-- Umbrella reflector -->
    <g transform="translate(320, 160)">
      <path d="M0 0 Q15 -10 30 0 Q25 5 15 8 Q5 5 0 0" fill="#e5e7eb"/>
      <line x1="15" y1="8" x2="15" y2="25" stroke="#374151" stroke-width="2"/>
    </g>
  </g>
  
  <!-- Light rays and effects -->
  <g opacity="0.4">
    <!-- Light from softbox 1 -->
    <polygon points="95,130 200,140 200,180 95,140" fill="url(#flashGradient)"/>
    <!-- Light from softbox 2 -->
    <polygon points="305,120 200,140 200,180 305,130" fill="url(#flashGradient)"/>
    <!-- Reflector light -->
    <polygon points="335,168 220,160 220,190 335,175" fill="#fbbf24" opacity="0.2"/>
  </g>
  
  <!-- Photography equipment -->
  <g>
    <!-- Light meter -->
    <g transform="translate(150, 250)">
      <rect x="0" y="0" width="12" height="8" fill="#374151" rx="2"/>
      <circle cx="6" cy="4" r="2" fill="#d4af37"/>
      <line x1="6" y1="0" x2="6" y2="-5" stroke="#4b5563" stroke-width="1"/>
    </g>
    
    <!-- Camera bag -->
    <g transform="translate(50, 240)">
      <rect x="0" y="0" width="40" height="25" fill="#1f2937" rx="5"/>
      <rect x="5" y="5" width="30" height="15" fill="#374151" rx="3"/>
      <circle cx="20" cy="12.5" r="2" fill="#d4af37"/>
    </g>
    
    <!-- Lens case -->
    <g transform="translate(300, 245)">
      <rect x="0" y="0" width="15" height="20" fill="#6b7280" rx="3"/>
      <rect x="2" y="2" width="11" height="16" fill="#9ca3af" rx="2"/>
    </g>
  </g>
  
  <!-- Professional photo effects -->
  <g opacity="0.6">
    <!-- Camera flash effect -->
    <g transform="translate(125, 187)">
      <circle cx="0" cy="0" r="8" fill="#fbbf24" opacity="0.8"/>
      <circle cx="0" cy="0" r="4" fill="white"/>
      <!-- Flash rays -->
      <g stroke="white" stroke-width="2" opacity="0.6">
        <line x1="-12" y1="0" x2="-10" y2="0"/>
        <line x1="10" y1="0" x2="12" y2="0"/>
        <line x1="0" y1="-12" x2="0" y2="-10"/>
        <line x1="0" y1="10" x2="0" y2="12"/>
        <line x1="-8" y1="-8" x2="-7" y2="-7"/>
        <line x1="7" y1="7" x2="8" y2="8"/>
        <line x1="8" y1="-8" x2="7" y2="-7"/>
        <line x1="-7" y1="7" x2="-8" y2="8"/>
      </g>
    </g>
  </g>
  
  <!-- Studio props -->
  <g>
    <!-- Stool/prop -->
    <g transform="translate(250, 200)">
      <ellipse cx="0" cy="0" rx="12" ry="4" fill="#92400e"/>
      <rect x="-2" y="0" width="4" height="20" fill="#92400e"/>
      <ellipse cx="0" cy="20" rx="8" ry="3" fill="#78350f"/>
    </g>
    
    <!-- Backdrop stand -->
    <g transform="translate(350, 140)">
      <line x1="0" y1="0" x2="0" y2="80" stroke="#6b7280" stroke-width="3"/>
      <circle cx="0" cy="0" r="3" fill="#374151"/>
    </g>
    
    <g transform="translate(50, 140)">
      <line x1="0" y1="0" x2="0" y2="80" stroke="#6b7280" stroke-width="3"/>
      <circle cx="0" cy="0" r="3" fill="#374151"/>
    </g>
  </g>
  
  <!-- Focus markers and composition guides -->
  <g stroke="#d4af37" stroke-width="1" fill="none" opacity="0.3">
    <circle cx="200" cy="150" r="20"/>
    <line x1="180" y1="150" x2="190" y2="150"/>
    <line x1="210" y1="150" x2="220" y2="150"/>
    <line x1="200" y1="130" x2="200" y2="140"/>
    <line x1="200" y1="160" x2="200" y2="170"/>
  </g>
</svg>