<svg viewBox="0 0 1920 1080" xmlns="http://www.w3.org/2000/svg">
  <defs>
    <!-- Background gradient -->
    <linearGradient id="bgGradient" x1="0%" y1="0%" x2="100%" y2="100%">
      <stop offset="0%" style="stop-color:#1a1a1a;stop-opacity:0.7" />
      <stop offset="100%" style="stop-color:#000000;stop-opacity:0.9" />
    </linearGradient>
    
    <!-- Studio lighting effect -->
    <radialGradient id="spotlight" cx="30%" cy="30%" r="50%">
      <stop offset="0%" style="stop-color:#ffffff;stop-opacity:0.3" />
      <stop offset="100%" style="stop-color:#000000;stop-opacity:0.1" />
    </radialGradient>
  </defs>
  
  <!-- Base background -->
  <rect width="1920" height="1080" fill="#000000"/>
  
  <!-- Professional model silhouette -->
  <g transform="translate(1200, 0)">
    <!-- Model body outline -->
    <path d="M 300 100 
             C 280 120 270 150 275 200
             C 280 250 285 300 290 350
             C 295 450 300 550 305 650
             C 310 750 315 850 320 950
             C 325 1000 330 1050 340 1080
             L 380 1080
             C 385 1050 390 1000 395 950
             C 400 850 405 750 410 650
             C 415 550 420 450 425 350
             C 430 300 435 250 440 200
             C 445 150 435 120 415 100
             C 395 80 375 75 355 80
             C 335 85 315 90 300 100 Z" 
          fill="#ffffff" opacity="0.15"/>
    
    <!-- Head silhouette -->
    <ellipse cx="357" cy="80" rx="35" ry="45" fill="#ffffff" opacity="0.18"/>
    
    <!-- Fashion details -->
    <path d="M 290 350 C 320 340 350 345 380 350 C 410 355 420 360 425 350" 
          stroke="#ffffff" stroke-width="1" fill="none" opacity="0.2"/>
    <path d="M 295 650 C 325 640 355 645 385 650 C 415 655 425 660 430 650" 
          stroke="#ffffff" stroke-width="1" fill="none" opacity="0.2"/>
  </g>
  
  <!-- Secondary model silhouette (left side) -->
  <g transform="translate(50, 50)">
    <path d="M 200 150 
             C 190 170 185 200 190 250
             C 195 300 200 350 205 400
             C 210 500 215 600 220 700
             C 225 800 230 900 235 1000
             L 270 1000
             C 275 900 280 800 285 700
             C 290 600 295 500 300 400
             C 305 350 310 300 315 250
             C 320 200 315 170 305 150
             C 295 130 285 125 275 130
             C 265 135 255 140 250 150
             C 240 145 230 145 220 150
             C 210 155 200 150 200 150 Z" 
          fill="#ffffff" opacity="0.08"/>
  </g>
  
  <!-- Studio lighting effects -->
  <ellipse cx="600" cy="300" rx="400" ry="200" fill="url(#spotlight)"/>
  <ellipse cx="1400" cy="400" rx="300" ry="150" fill="url(#spotlight)" opacity="0.5"/>
  
  <!-- Fashion runway lines -->
  <path d="M 0 900 L 1920 850" stroke="#ffffff" stroke-width="1" opacity="0.1"/>
  <path d="M 0 950 L 1920 920" stroke="#ffffff" stroke-width="1" opacity="0.1"/>
  <path d="M 0 1000 L 1920 980" stroke="#ffffff" stroke-width="1" opacity="0.1"/>
  
  <!-- Elegant geometric pattern -->
  <g opacity="0.05">
    <polygon points="100,200 200,100 300,200 200,300" fill="#ffffff"/>
    <polygon points="1500,300 1600,200 1700,300 1600,400" fill="#ffffff"/>
    <polygon points="800,100 900,50 1000,100 900,150" fill="#ffffff"/>
  </g>
  
  <!-- Final overlay gradient -->
  <rect width="1920" height="1080" fill="url(#bgGradient)"/>
</svg>