<svg viewBox="0 0 300 400" xmlns="http://www.w3.org/2000/svg">
  <defs>
    <linearGradient id="skinTone6" x1="0%" y1="0%" x2="100%" y2="100%">
      <stop offset="0%" style="stop-color:#fef3c7" />
      <stop offset="100%" style="stop-color:#fde68a" />
    </linearGradient>
    <linearGradient id="hair6" x1="0%" y1="0%" x2="100%" y2="100%">
      <stop offset="0%" style="stop-color:#fbbf24" />
      <stop offset="100%" style="stop-color:#f59e0b" />
    </linearGradient>
    <linearGradient id="outfit6" x1="0%" y1="0%" x2="100%" y2="100%">
      <stop offset="0%" style="stop-color:#1e3a8a" />
      <stop offset="100%" style="stop-color:#3b82f6" />
    </linearGradient>
  </defs>
  
  <rect width="300" height="400" fill="#f8f9fa"/>
  
  <g transform="translate(150, 80)">
    <path d="M-14 60 Q-9 50 -5 55 L-5 40 Q-5 20 0 20 Q5 20 5 40 L5 55 Q9 50 14 60 L11 120 Q14 160 11 200 L9 240 Q7 260 4 280 Q2 300 0 300 Q-2 300 -4 280 Q-7 260 -9 240 L-11 200 Q-14 160 -11 120 Z" fill="url(#outfit6)"/>
    <circle cx="0" cy="10" r="17" fill="url(#skinTone6)"/>
    <ellipse cx="0" cy="5" rx="19" ry="23" fill="url(#hair6)"/>
    <circle cx="-4" cy="8" r="1.5" fill="#1f2937"/>
    <circle cx="4" cy="8" r="1.5" fill="#1f2937"/>
    <ellipse cx="-17" cy="80" rx="6" ry="19" fill="url(#skinTone6)" transform="rotate(-16)"/>
    <ellipse cx="17" cy="80" rx="6" ry="19" fill="url(#skinTone6)" transform="rotate(16)"/>
    <rect x="-7" y="70" width="14" height="38" fill="#d4af37" opacity="0.7"/>
    <rect x="-5" y="280" width="4" height="39" fill="url(#skinTone6)"/>
    <rect x="1" y="280" width="4" height="39" fill="url(#skinTone6)"/>
    <ellipse cx="-2.5" cy="323" rx="7" ry="3" fill="#1f2937"/>
    <ellipse cx="2.5" cy="323" rx="7" ry="3" fill="#1f2937"/>
  </g>
</svg>