<svg viewBox="0 0 300 400" xmlns="http://www.w3.org/2000/svg">
  <defs>
    <linearGradient id="skinTone5" x1="0%" y1="0%" x2="100%" y2="100%">
      <stop offset="0%" style="stop-color:#a16207" />
      <stop offset="100%" style="stop-color:#ca8a04" />
    </linearGradient>
    <linearGradient id="hair5" x1="0%" y1="0%" x2="100%" y2="100%">
      <stop offset="0%" style="stop-color:#1f2937" />
      <stop offset="100%" style="stop-color:#111827" />
    </linearGradient>
    <linearGradient id="outfit5" x1="0%" y1="0%" x2="100%" y2="100%">
      <stop offset="0%" style="stop-color:#dc2626" />
      <stop offset="100%" style="stop-color:#ef4444" />
    </linearGradient>
  </defs>
  
  <rect width="300" height="400" fill="#f8f9fa"/>
  
  <g transform="translate(150, 80)">
    <path d="M-13 60 Q-8 50 -4 55 L-4 40 Q-4 20 0 20 Q4 20 4 40 L4 55 Q8 50 13 60 L10 120 Q13 160 10 200 L8 240 Q6 260 3 280 Q1 300 0 300 Q-1 300 -3 280 Q-6 260 -8 240 L-10 200 Q-13 160 -10 120 Z" fill="url(#outfit5)"/>
    <circle cx="0" cy="10" r="16" fill="url(#skinTone5)"/>
    <ellipse cx="0" cy="5" rx="17" ry="21" fill="url(#hair5)"/>
    <circle cx="-4" cy="8" r="1.5" fill="#1f2937"/>
    <circle cx="4" cy="8" r="1.5" fill="#1f2937"/>
    <ellipse cx="-16" cy="80" rx="5" ry="18" fill="url(#skinTone5)" transform="rotate(-22)"/>
    <ellipse cx="16" cy="80" rx="5" ry="18" fill="url(#skinTone5)" transform="rotate(22)"/>
    <rect x="-6" y="70" width="12" height="36" fill="#d4af37" opacity="0.6"/>
    <rect x="-4" y="280" width="4" height="38" fill="url(#skinTone5)"/>
    <rect x="0" y="280" width="4" height="38" fill="url(#skinTone5)"/>
    <ellipse cx="-2" cy="322" rx="7" ry="3" fill="#374151"/>
    <ellipse cx="2" cy="322" rx="7" ry="3" fill="#374151"/>
  </g>
  
  <g opacity="0.15">
    <circle cx="60" cy="130" r="20" fill="#dc2626"/>
    <circle cx="240" cy="190" r="18" fill="#d4af37"/>
  </g>
</svg>