<svg viewBox="0 0 300 400" xmlns="http://www.w3.org/2000/svg">
  <defs>
    <linearGradient id="skinTone7" x1="0%" y1="0%" x2="100%" y2="100%">
      <stop offset="0%" style="stop-color:#fde68a" />
      <stop offset="100%" style="stop-color:#fbbf24" />
    </linearGradient>
    <linearGradient id="hair7" x1="0%" y1="0%" x2="100%" y2="100%">
      <stop offset="0%" style="stop-color:#7c3aed" />
      <stop offset="100%" style="stop-color:#a855f7" />
    </linearGradient>
    <linearGradient id="outfit7" x1="0%" y1="0%" x2="100%" y2="100%">
      <stop offset="0%" style="stop-color:#374151" />
      <stop offset="100%" style="stop-color:#6b7280" />
    </linearGradient>
  </defs>
  
  <rect width="300" height="400" fill="#f8f9fa"/>
  
  <g transform="translate(150, 80)">
    <path d="M-15 60 Q-10 50 -5 55 L-5 40 Q-5 20 0 20 Q5 20 5 40 L5 55 Q10 50 15 60 L12 120 Q15 160 12 200 L10 240 Q8 260 4 280 Q2 300 0 300 Q-2 300 -4 280 Q-8 260 -10 240 L-12 200 Q-15 160 -12 120 Z" fill="url(#outfit7)"/>
    <circle cx="0" cy="10" r="18" fill="url(#skinTone7)"/>
    <ellipse cx="0" cy="5" rx="20" ry="25" fill="url(#hair7)"/>
    <circle cx="-5" cy="8" r="1.5" fill="#1f2937"/>
    <circle cx="5" cy="8" r="1.5" fill="#1f2937"/>
    <ellipse cx="-18" cy="80" rx="6" ry="20" fill="url(#skinTone7)" transform="rotate(-15)"/>
    <ellipse cx="18" cy="80" rx="6" ry="20" fill="url(#skinTone7)" transform="rotate(15)"/>
    <rect x="-8" y="70" width="16" height="40" fill="#d4af37" opacity="0.7"/>
    <rect x="-6" y="280" width="5" height="40" fill="url(#skinTone7)"/>
    <rect x="1" y="280" width="5" height="40" fill="url(#skinTone7)"/>
    <ellipse cx="-3" cy="325" rx="8" ry="4" fill="#1f2937"/>
    <ellipse cx="3" cy="325" rx="8" ry="4" fill="#1f2937"/>
  </g>
</svg>