<svg viewBox="0 0 300 400" xmlns="http://www.w3.org/2000/svg">
  <defs>
    <linearGradient id="skinTone8" x1="0%" y1="0%" x2="100%" y2="100%">
      <stop offset="0%" style="stop-color:#fde68a" />
      <stop offset="100%" style="stop-color:#f59e0b" />
    </linearGradient>
    <linearGradient id="hair8" x1="0%" y1="0%" x2="100%" y2="100%">
      <stop offset="0%" style="stop-color:#fbbf24" />
      <stop offset="100%" style="stop-color:#d97706" />
    </linearGradient>
    <linearGradient id="outfit8" x1="0%" y1="0%" x2="100%" y2="100%">
      <stop offset="0%" style="stop-color:#059669" />
      <stop offset="100%" style="stop-color:#10b981" />
    </linearGradient>
  </defs>
  
  <rect width="300" height="400" fill="#f8f9fa"/>
  
  <!-- Male model - James Mitchell -->
  <g transform="translate(150, 80)">
    <path d="M-20 60 Q-14 50 -10 55 L-10 40 Q-10 20 0 20 Q10 20 10 40 L10 55 Q14 50 20 60 L17 120 Q20 160 17 200 L15 240 Q13 260 10 280 Q6 300 0 300 Q-6 300 -10 280 Q-13 260 -15 240 L-17 200 Q-20 160 -17 120 Z" fill="url(#outfit8)"/>
    <circle cx="0" cy="10" r="20" fill="url(#skinTone8)"/>
    <ellipse cx="0" cy="5" rx="18" ry="20" fill="url(#hair8)"/>
    <circle cx="-5" cy="8" r="1.5" fill="#1f2937"/>
    <circle cx="5" cy="8" r="1.5" fill="#1f2937"/>
    <ellipse cx="-24" cy="80" rx="9" ry="24" fill="url(#skinTone8)" transform="rotate(-10)"/>
    <ellipse cx="24" cy="80" rx="9" ry="24" fill="url(#skinTone8)" transform="rotate(10)"/>
    <rect x="-12" y="70" width="24" height="50" fill="#d4af37" opacity="0.8"/>
    <rect x="-8" y="280" width="7" height="44" fill="url(#skinTone8)"/>
    <rect x="1" y="280" width="7" height="44" fill="url(#skinTone8)"/>
    <ellipse cx="-4.5" cy="328" rx="10" ry="4" fill="#1f2937"/>
    <ellipse cx="4.5" cy="328" rx="10" ry="4" fill="#1f2937"/>
  </g>
</svg>