<svg viewBox="0 0 300 400" xmlns="http://www.w3.org/2000/svg">
  <defs>
    <linearGradient id="skinTone3" x1="0%" y1="0%" x2="100%" y2="100%">
      <stop offset="0%" style="stop-color:#92400e" />
      <stop offset="100%" style="stop-color:#a16207" />
    </linearGradient>
    <linearGradient id="hair3" x1="0%" y1="0%" x2="100%" y2="100%">
      <stop offset="0%" style="stop-color:#451a03" />
      <stop offset="100%" style="stop-color:#78350f" />
    </linearGradient>
    <linearGradient id="outfit3" x1="0%" y1="0%" x2="100%" y2="100%">
      <stop offset="0%" style="stop-color:#059669" />
      <stop offset="100%" style="stop-color:#10b981" />
    </linearGradient>
  </defs>
  
  <rect width="300" height="400" fill="#f8f9fa"/>
  
  <g transform="translate(150, 80)">
    <path d="M-14 60 Q-9 50 -5 55 L-5 40 Q-5 20 0 20 Q5 20 5 40 L5 55 Q9 50 14 60 L11 120 Q14 160 11 200 L9 240 Q7 260 4 280 Q2 300 0 300 Q-2 300 -4 280 Q-7 260 -9 240 L-11 200 Q-14 160 -11 120 Z" fill="url(#outfit3)"/>
    <circle cx="0" cy="10" r="17" fill="url(#skinTone3)"/>
    <ellipse cx="0" cy="5" rx="19" ry="22" fill="url(#hair3)"/>
    <path d="M-16 15 Q-22 25 -18 40 Q-12 50 -8 45 Q-6 35 -8 25" fill="url(#hair3)"/>
    <circle cx="-4" cy="8" r="1.5" fill="#1f2937"/>
    <circle cx="4" cy="8" r="1.5" fill="#1f2937"/>
    <path d="M-2 12 Q0 14 2 12" stroke="#dc2626" stroke-width="1" fill="none"/>
    <ellipse cx="-17" cy="80" rx="6" ry="19" fill="url(#skinTone3)" transform="rotate(-18)"/>
    <ellipse cx="17" cy="80" rx="6" ry="19" fill="url(#skinTone3)" transform="rotate(18)"/>
    <rect x="-7" y="70" width="14" height="38" fill="#d4af37" opacity="0.7"/>
    <rect x="-5" y="280" width="4" height="39" fill="url(#skinTone3)"/>
    <rect x="1" y="280" width="4" height="39" fill="url(#skinTone3)"/>
    <ellipse cx="-2.5" cy="323" rx="7" ry="3" fill="#1f2937"/>
    <ellipse cx="2.5" cy="323" rx="7" ry="3" fill="#1f2937"/>
  </g>
  
  <g opacity="0.15">
    <circle cx="70" cy="110" r="22" fill="#059669"/>
    <circle cx="230" cy="170" r="18" fill="#d4af37"/>
  </g>
</svg>