<svg viewBox="0 0 300 400" xmlns="http://www.w3.org/2000/svg">
  <defs>
    <linearGradient id="skinTone2" x1="0%" y1="0%" x2="100%" y2="100%">
      <stop offset="0%" style="stop-color:#fef3c7" />
      <stop offset="100%" style="stop-color:#fde68a" />
    </linearGradient>
    <linearGradient id="hair2" x1="0%" y1="0%" x2="100%" y2="100%">
      <stop offset="0%" style="stop-color:#1f2937" />
      <stop offset="100%" style="stop-color:#374151" />
    </linearGradient>
    <linearGradient id="outfit2" x1="0%" y1="0%" x2="100%" y2="100%">
      <stop offset="0%" style="stop-color:#7c3aed" />
      <stop offset="100%" style="stop-color:#a855f7" />
    </linearGradient>
  </defs>
  
  <!-- Background -->
  <rect width="300" height="400" fill="#f8f9fa"/>
  
  <!-- Fashion model silhouette - Isabella Chen -->
  <g transform="translate(150, 80)">
    <!-- Body -->
    <path d="M-12 60 Q-8 50 -4 55 L-4 40 Q-4 20 0 20 Q4 20 4 40 L4 55 Q8 50 12 60 L10 120 Q12 160 10 200 L8 240 Q6 260 3 280 Q1 300 0 300 Q-1 300 -3 280 Q-6 260 -8 240 L-10 200 Q-12 160 -10 120 Z" fill="url(#outfit2)"/>
    
    <!-- Head -->
    <circle cx="0" cy="10" r="16" fill="url(#skinTone2)"/>
    
    <!-- Hair - sleek bob cut -->
    <ellipse cx="0" cy="5" rx="18" ry="20" fill="url(#hair2)"/>
    <rect x="-18" y="-5" width="36" height="15" fill="url(#hair2)" rx="18"/>
    
    <!-- Facial features -->
    <ellipse cx="-4" cy="8" rx="1" ry="1.5" fill="#1f2937"/>
    <ellipse cx="4" cy="8" rx="1" ry="1.5" fill="#1f2937"/>
    <path d="M-2 12 Q0 13 2 12" stroke="#dc2626" stroke-width="0.8" fill="none"/>
    
    <!-- Arms -->
    <ellipse cx="-15" cy="80" rx="5" ry="18" fill="url(#skinTone2)" transform="rotate(-20)"/>
    <ellipse cx="15" cy="80" rx="5" ry="18" fill="url(#skinTone2)" transform="rotate(20)"/>
    
    <!-- Commercial outfit details -->
    <rect x="-6" y="70" width="12" height="35" fill="#d4af37" opacity="0.6"/>
    <rect x="-4" y="85" width="8" height="3" fill="#fbbf24"/>
    
    <!-- Legs -->
    <rect x="-5" y="280" width="4" height="38" fill="url(#skinTone2)"/>
    <rect x="1" y="280" width="4" height="38" fill="url(#skinTone2)"/>
    
    <!-- Stylish shoes -->
    <ellipse cx="-2.5" cy="322" rx="7" ry="3" fill="#374151"/>
    <ellipse cx="2.5" cy="322" rx="7" ry="3" fill="#374151"/>
  </g>
  
  <!-- Beauty accessories -->
  <g transform="translate(150, 120)" opacity="0.8">
    <!-- Subtle earrings -->
    <circle cx="-12" cy="-25" r="1.5" fill="#a855f7"/>
    <circle cx="12" cy="-25" r="1.5" fill="#a855f7"/>
    
    <!-- Bracelet -->
    <ellipse cx="-15" cy="60" rx="2" ry="6" fill="none" stroke="#d4af37" stroke-width="1" transform="rotate(45)"/>
  </g>
  
  <!-- Commercial/beauty background elements -->
  <g opacity="0.15">
    <circle cx="60" cy="120" r="25" fill="#7c3aed"/>
    <circle cx="240" cy="180" r="20" fill="#d4af37"/>
    <circle cx="80" cy="280" r="30" fill="#a855f7"/>
    <circle cx="220" cy="300" r="22" fill="#fbbf24"/>
  </g>
  
  <!-- Beauty industry elements -->
  <g opacity="0.4">
    <ellipse cx="40" cy="60" rx="8" ry="4" fill="#7c3aed"/>
    <ellipse cx="260" cy="100" rx="6" ry="3" fill="#d4af37"/>
    <rect x="30" y="320" width="15" height="3" fill="#a855f7" rx="1.5"/>
    <rect x="255" y="340" width="12" height="2" fill="#fbbf24" rx="1"/>
  </g>
</svg>