<svg viewBox="0 0 300 400" xmlns="http://www.w3.org/2000/svg">
  <defs>
    <linearGradient id="skinTone1" x1="0%" y1="0%" x2="100%" y2="100%">
      <stop offset="0%" style="stop-color:#fde68a" />
      <stop offset="100%" style="stop-color:#fbbf24" />
    </linearGradient>
    <linearGradient id="hair1" x1="0%" y1="0%" x2="100%" y2="100%">
      <stop offset="0%" style="stop-color:#92400e" />
      <stop offset="100%" style="stop-color:#78350f" />
    </linearGradient>
    <linearGradient id="outfit1" x1="0%" y1="0%" x2="100%" y2="100%">
      <stop offset="0%" style="stop-color:#1e3a8a" />
      <stop offset="100%" style="stop-color:#3b82f6" />
    </linearGradient>
  </defs>
  
  <!-- Background -->
  <rect width="300" height="400" fill="#f8f9fa"/>
  
  <!-- Fashion model silhouette - Sophia Laurent -->
  <g transform="translate(150, 80)">
    <!-- Body -->
    <path d="M-15 60 Q-10 50 -5 55 L-5 40 Q-5 20 0 20 Q5 20 5 40 L5 55 Q10 50 15 60 L12 120 Q15 160 12 200 L10 240 Q8 260 4 280 Q2 300 0 300 Q-2 300 -4 280 Q-8 260 -10 240 L-12 200 Q-15 160 -12 120 Z" fill="url(#outfit1)"/>
    
    <!-- Head -->
    <circle cx="0" cy="10" r="18" fill="url(#skinTone1)"/>
    
    <!-- Hair - elegant long hair -->
    <ellipse cx="0" cy="5" rx="20" ry="25" fill="url(#hair1)"/>
    <path d="M-18 15 Q-25 25 -20 40 Q-15 50 -10 45 Q-8 35 -10 25" fill="url(#hair1)"/>
    <path d="M18 15 Q25 25 20 40 Q15 50 10 45 Q8 35 10 25" fill="url(#hair1)"/>
    
    <!-- Facial features -->
    <circle cx="-5" cy="8" r="1.5" fill="#1f2937"/>
    <circle cx="5" cy="8" r="1.5" fill="#1f2937"/>
    <path d="M-3 12 Q0 14 3 12" stroke="#dc2626" stroke-width="1" fill="none"/>
    
    <!-- Arms -->
    <ellipse cx="-18" cy="80" rx="6" ry="20" fill="url(#skinTone1)" transform="rotate(-15)"/>
    <ellipse cx="18" cy="80" rx="6" ry="20" fill="url(#skinTone1)" transform="rotate(15)"/>
    
    <!-- Elegant dress details -->
    <rect x="-8" y="70" width="16" height="40" fill="#d4af37" opacity="0.7"/>
    <circle cx="0" cy="90" r="3" fill="#fbbf24"/>
    
    <!-- Legs -->
    <rect x="-6" y="280" width="5" height="40" fill="url(#skinTone1)"/>
    <rect x="1" y="280" width="5" height="40" fill="url(#skinTone1)"/>
    
    <!-- High heels -->
    <ellipse cx="-3" cy="325" rx="8" ry="4" fill="#1f2937"/>
    <ellipse cx="3" cy="325" rx="8" ry="4" fill="#1f2937"/>
  </g>
  
  <!-- Fashion accessories -->
  <g transform="translate(150, 120)" opacity="0.8">
    <!-- Earrings -->
    <circle cx="-15" cy="-25" r="2" fill="#d4af37"/>
    <ellipse cx="-15" cy="-20" rx="1.5" ry="4" fill="#d4af37"/>
    <circle cx="15" cy="-25" r="2" fill="#d4af37"/>
    <ellipse cx="15" cy="-20" rx="1.5" ry="4" fill="#d4af37"/>
    
    <!-- Necklace -->
    <ellipse cx="0" cy="25" rx="12" ry="8" fill="none" stroke="#d4af37" stroke-width="1"/>
    <circle cx="0" cy="33" r="2" fill="#d4af37"/>
  </g>
  
  <!-- Professional fashion background elements -->
  <g opacity="0.1">
    <circle cx="50" cy="100" r="20" fill="#d4af37"/>
    <circle cx="250" cy="150" r="15" fill="#1e3a8a"/>
    <circle cx="70" cy="300" r="25" fill="#3b82f6"/>
    <circle cx="230" cy="320" r="18" fill="#fbbf24"/>
  </g>
  
  <!-- Haute couture elements -->
  <g opacity="0.3">
    <path d="M20 50 Q40 45 60 50 Q50 60 40 65 Q30 60 20 50" fill="#d4af37"/>
    <path d="M240 80 Q260 75 280 80 Q270 90 260 95 Q250 90 240 80" fill="#1e3a8a"/>
  </g>
</svg>