<svg viewBox="0 0 300 400" xmlns="http://www.w3.org/2000/svg">
  <defs>
    <linearGradient id="skinTone4" x1="0%" y1="0%" x2="100%" y2="100%">
      <stop offset="0%" style="stop-color:#fde68a" />
      <stop offset="100%" style="stop-color:#f59e0b" />
    </linearGradient>
    <linearGradient id="hair4" x1="0%" y1="0%" x2="100%" y2="100%">
      <stop offset="0%" style="stop-color:#78350f" />
      <stop offset="100%" style="stop-color:#92400e" />
    </linearGradient>
    <linearGradient id="outfit4" x1="0%" y1="0%" x2="100%" y2="100%">
      <stop offset="0%" style="stop-color:#1f2937" />
      <stop offset="100%" style="stop-color:#374151" />
    </linearGradient>
  </defs>
  
  <rect width="300" height="400" fill="#f8f9fa"/>
  
  <!-- Male model - Luca Rodriguez -->
  <g transform="translate(150, 80)">
    <path d="M-18 60 Q-12 50 -8 55 L-8 40 Q-8 20 0 20 Q8 20 8 40 L8 55 Q12 50 18 60 L15 120 Q18 160 15 200 L13 240 Q11 260 8 280 Q4 300 0 300 Q-4 300 -8 280 Q-11 260 -13 240 L-15 200 Q-18 160 -15 120 Z" fill="url(#outfit4)"/>
    <circle cx="0" cy="10" r="19" fill="url(#skinTone4)"/>
    <ellipse cx="0" cy="5" rx="16" ry="18" fill="url(#hair4)"/>
    <circle cx="-5" cy="8" r="1.5" fill="#1f2937"/>
    <circle cx="5" cy="8" r="1.5" fill="#1f2937"/>
    <ellipse cx="-22" cy="80" rx="8" ry="22" fill="url(#skinTone4)" transform="rotate(-12)"/>
    <ellipse cx="22" cy="80" rx="8" ry="22" fill="url(#skinTone4)" transform="rotate(12)"/>
    <rect x="-10" y="70" width="20" height="45" fill="#d4af37" opacity="0.8"/>
    <rect x="-7" y="280" width="6" height="42" fill="url(#skinTone4)"/>
    <rect x="1" y="280" width="6" height="42" fill="url(#skinTone4)"/>
    <ellipse cx="-4" cy="326" rx="9" ry="4" fill="#1f2937"/>
    <ellipse cx="4" cy="326" rx="9" ry="4" fill="#1f2937"/>
  </g>
  
  <g opacity="0.15">
    <circle cx="50" cy="140" r="28" fill="#1f2937"/>
    <circle cx="250" cy="200" r="25" fill="#d4af37"/>
  </g>
</svg>