<svg viewBox="0 0 400 300" xmlns="http://www.w3.org/2000/svg">
  <defs>
    <linearGradient id="professionalGradient" x1="0%" y1="0%" x2="100%" y2="100%">
      <stop offset="0%" style="stop-color:#1e3a8a" />
      <stop offset="100%" style="stop-color:#3b82f6" />
    </linearGradient>
    <linearGradient id="goldAccent" x1="0%" y1="0%" x2="100%" y2="100%">
      <stop offset="0%" style="stop-color:#d4af37" />
      <stop offset="100%" style="stop-color:#fbbf24" />
    </linearGradient>
  </defs>
  
  <!-- Background -->
  <rect width="400" height="300" fill="#f8f9fa"/>
  
  <!-- Professional suit silhouette -->
  <g transform="translate(150, 50)">
    <!-- Jacket -->
    <path d="M20 80 Q30 70 50 75 L50 50 Q50 30 70 30 Q90 30 90 50 L90 75 Q110 70 120 80 L115 120 Q120 140 115 160 L105 200 Q95 220 85 200 L55 200 Q45 220 35 200 L25 160 Q20 140 25 120 Z" fill="url(#professionalGradient)"/>
    
    <!-- Shirt -->
    <rect x="55" y="45" width="30" height="80" fill="white"/>
    
    <!-- Tie -->
    <polygon points="65,50 75,50 73,90 67,90" fill="url(#goldAccent)"/>
    
    <!-- Lapels -->
    <path d="M55 45 L65 55 L65 80 L55 75 Z" fill="url(#professionalGradient)" opacity="0.8"/>
    <path d="M85 45 L75 55 L75 80 L85 75 Z" fill="url(#professionalGradient)" opacity="0.8"/>
  </g>
  
  <!-- Professional accessories -->
  <!-- Briefcase -->
  <g transform="translate(50, 200)">
    <rect x="0" y="0" width="80" height="50" fill="#374151" rx="5"/>
    <rect x="5" y="5" width="70" height="40" fill="#4b5563" rx="3"/>
    <circle cx="40" cy="25" r="3" fill="url(#goldAccent)"/>
    <rect x="35" y="-5" width="10" height="10" fill="#374151" rx="2"/>
  </g>
  
  <!-- Quality symbols -->
  <!-- Medal/Award -->
  <g transform="translate(300, 180)">
    <circle cx="0" cy="0" r="25" fill="url(#goldAccent)"/>
    <circle cx="0" cy="0" r="18" fill="#fbbf24"/>
    <polygon points="-8,-5 8,-5 5,8 -5,8" fill="url(#professionalGradient)"/>
    <rect x="-2" y="25" width="4" height="30" fill="#d4af37"/>
  </g>
  
  <!-- Professional tools -->
  <!-- Calendar/Schedule -->
  <g transform="translate(270, 80)">
    <rect x="0" y="0" width="60" height="50" fill="white" stroke="#d1d5db" stroke-width="2"/>
    <rect x="0" y="0" width="60" height="15" fill="url(#professionalGradient)"/>
    <rect x="5" y="20" width="10" height="8" fill="#d4af37"/>
    <rect x="20" y="20" width="10" height="8" fill="#e5e7eb"/>
    <rect x="35" y="20" width="10" height="8" fill="#e5e7eb"/>
    <rect x="5" y="32" width="10" height="8" fill="#e5e7eb"/>
    <rect x="20" y="32" width="10" height="8" fill="#d4af37"/>
  </g>
  
  <!-- Clock showing punctuality -->
  <g transform="translate(320, 40)">
    <circle cx="0" cy="0" r="20" fill="white" stroke="url(#professionalGradient)" stroke-width="3"/>
    <line x1="0" y1="0" x2="0" y2="-12" stroke="url(#professionalGradient)" stroke-width="2"/>
    <line x1="0" y1="0" x2="8" y2="0" stroke="url(#goldAccent)" stroke-width="2"/>
    <circle cx="0" cy="0" r="2" fill="url(#professionalGradient)"/>
  </g>
  
  <!-- Excellence indicators -->
  <!-- Stars for quality -->
  <g fill="url(#goldAccent)" opacity="0.8">
    <polygon points="50,40 52,46 58,46 53,50 55,56 50,52 45,56 47,50 42,46 48,46" transform="scale(0.8)"/>
    <polygon points="50,40 52,46 58,46 53,50 55,56 50,52 45,56 47,50 42,46 48,46" transform="translate(15,10) scale(0.6)"/>
    <polygon points="50,40 52,46 58,46 53,50 55,56 50,52 45,56 47,50 42,46 48,46" transform="translate(30,5) scale(0.7)"/>
  </g>
  
  <!-- Professional handshake symbol -->
  <g transform="translate(100, 250)" opacity="0.6">
    <path d="M0 0 Q10 -5 20 0 Q30 5 40 0 L45 5 Q40 15 35 20 L25 15 Q15 20 5 15 Q0 10 0 0" fill="url(#professionalGradient)"/>
  </g>
</svg>