<svg viewBox="0 0 400 300" xmlns="http://www.w3.org/2000/svg">
  <defs>
    <linearGradient id="creativeGradient" x1="0%" y1="0%" x2="100%" y2="100%">
      <stop offset="0%" style="stop-color:#d4af37" />
      <stop offset="50%" style="stop-color:#fbbf24" />
      <stop offset="100%" style="stop-color:#f59e0b" />
    </linearGradient>
    <linearGradient id="artGradient" x1="0%" y1="0%" x2="100%" y2="100%">
      <stop offset="0%" style="stop-color:#1e3a8a" />
      <stop offset="100%" style="stop-color:#3b82f6" />
    </linearGradient>
  </defs>
  
  <!-- Background -->
  <rect width="400" height="300" fill="#f8f9fa"/>
  
  <!-- Artist palette -->
  <g transform="translate(50, 100)">
    <ellipse cx="40" cy="30" rx="45" ry="35" fill="white" stroke="#d1d5db" stroke-width="3"/>
    <!-- Thumb hole -->
    <ellipse cx="55" cy="45" rx="8" ry="12" fill="#f8f9fa"/>
    <!-- Paint colors -->
    <circle cx="25" cy="20" r="6" fill="#dc2626"/>
    <circle cx="40" cy="15" r="6" fill="#d4af37"/>
    <circle cx="55" cy="20" r="6" fill="#1e3a8a"/>
    <circle cx="25" cy="40" r="6" fill="#059669"/>
    <circle cx="45" cy="45" r="6" fill="#7c3aed"/>
  </g>
  
  <!-- Paintbrush -->
  <g transform="translate(120, 80)">
    <rect x="0" y="0" width="3" height="60" fill="#92400e"/>
    <ellipse cx="1.5" cy="-5" rx="4" ry="8" fill="#374151"/>
    <polygon points="1.5,-13 -2,-8 5,-8" fill="url(#creativeGradient)"/>
  </g>
  
  <!-- Fashion sketches -->
  <g transform="translate(200, 50)">
    <!-- Sketch 1 -->
    <rect x="0" y="0" width="60" height="80" fill="white" stroke="#d1d5db" stroke-width="2"/>
    <path d="M15 15 Q30 10 45 15 L42 35 Q45 50 42 65 L38 75 Q32 80 28 75 L25 65 Q22 50 25 35 Z" stroke="url(#artGradient)" stroke-width="2" fill="none"/>
    <!-- Fashion details -->
    <line x1="28" y1="30" x2="37" y2="30" stroke="url(#creativeGradient)" stroke-width="1"/>
    <line x1="28" y1="35" x2="37" y2="35" stroke="url(#creativeGradient)" stroke-width="1"/>
    
    <!-- Sketch 2 -->
    <rect x="80" y="0" width="60" height="80" fill="white" stroke="#d1d5db" stroke-width="2"/>
    <path d="M95 15 Q110 10 125 15 L122 35 Q125 50 122 65 L118 75 Q112 80 108 75 L105 65 Q102 50 105 35 Z" stroke="url(#artGradient)" stroke-width="2" fill="none"/>
    <!-- Different style details -->
    <circle cx="110" cy="25" r="3" stroke="url(#creativeGradient)" stroke-width="1" fill="none"/>
    <path d="M105 40 Q110 38 115 40" stroke="url(#creativeGradient)" stroke-width="1" fill="none"/>
  </g>
  
  <!-- Creative lightbulb -->
  <g transform="translate(320, 60)">
    <circle cx="0" cy="0" r="18" fill="url(#creativeGradient)" opacity="0.8"/>
    <rect x="-8" y="15" width="16" height="12" fill="#374151" rx="2"/>
    <rect x="-6" y="27" width="12" height="4" fill="#4b5563" rx="1"/>
    <!-- Light rays -->
    <g stroke="url(#creativeGradient)" stroke-width="2" opacity="0.6">
      <line x1="-25" y1="-15" x2="-20" y2="-10"/>
      <line x1="25" y1="-15" x2="20" y2="-10"/>
      <line x1="-30" y1="0" x2="-22" y2="0"/>
      <line x1="30" y1="0" x2="22" y2="0"/>
      <line x1="-25" y1="15" x2="-20" y2="10"/>
      <line x1="25" y1="15" x2="20" y2="10"/>
    </g>
  </g>
  
  <!-- Colorful swatches -->
  <g transform="translate(80, 180)">
    <rect x="0" y="0" width="20" height="30" fill="#dc2626"/>
    <rect x="25" y="0" width="20" height="30" fill="#d4af37"/>
    <rect x="50" y="0" width="20" height="30" fill="#1e3a8a"/>
    <rect x="75" y="0" width="20" height="30" fill="#059669"/>
    <rect x="100" y="0" width="20" height="30" fill="#7c3aed"/>
    <rect x="125" y="0" width="20" height="30" fill="#f59e0b"/>
  </g>
  
  <!-- Creative tools -->
  <!-- Scissors -->
  <g transform="translate(250, 180)">
    <ellipse cx="5" cy="5" rx="8" ry="4" fill="#6b7280"/>
    <ellipse cx="5" cy="15" rx="8" ry="4" fill="#6b7280"/>
    <line x1="13" y1="8" x2="25" y2="12" stroke="#374151" stroke-width="2"/>
    <line x1="13" y1="12" x2="25" y2="8" stroke="#374151" stroke-width="2"/>
  </g>
  
  <!-- Measuring tape -->
  <g transform="translate(300, 200)">
    <rect x="0" y="0" width="40" height="8" fill="#fbbf24" rx="4"/>
    <g stroke="#d4af37" stroke-width="0.5">
      <line x1="5" y1="0" x2="5" y2="8"/>
      <line x1="10" y1="2" x2="10" y2="6"/>
      <line x1="15" y1="0" x2="15" y2="8"/>
      <line x1="20" y1="2" x2="20" y2="6"/>
      <line x1="25" y1="0" x2="25" y2="8"/>
      <line x1="30" y1="2" x2="30" y2="6"/>
      <line x1="35" y1="0" x2="35" y2="8"/>
    </g>
  </g>
  
  <!-- Creative swirls and artistic elements -->
  <g stroke="url(#creativeGradient)" stroke-width="3" fill="none" opacity="0.4">
    <path d="M30 250 Q50 230 70 250 T110 250"/>
    <path d="M150 270 Q170 250 190 270 T230 270"/>
    <circle cx="350" cy="250" r="15" opacity="0.3"/>
    <circle cx="365" cy="235" r="8" opacity="0.5"/>
    <circle cx="375" cy="260" r="5" opacity="0.7"/>
  </g>
  
  <!-- Inspiration stars -->
  <g fill="url(#creativeGradient)" opacity="0.6">
    <polygon points="50,30 52,36 58,36 53,40 55,46 50,42 45,46 47,40 42,36 48,36" transform="scale(0.6)"/>
    <polygon points="50,30 52,36 58,36 53,40 55,46 50,42 45,46 47,40 42,36 48,36" transform="translate(320,180) scale(0.8)"/>
    <polygon points="50,30 52,36 58,36 53,40 55,46 50,42 45,46 47,40 42,36 48,36" transform="translate(150,20) scale(0.4)"/>
  </g>
</svg>