<svg viewBox="0 0 400 300" xmlns="http://www.w3.org/2000/svg">
  <defs>
    <linearGradient id="diversityGradient1" x1="0%" y1="0%" x2="100%" y2="100%">
      <stop offset="0%" style="stop-color:#1e3a8a" />
      <stop offset="100%" style="stop-color:#3b82f6" />
    </linearGradient>
    <linearGradient id="diversityGradient2" x1="0%" y1="0%" x2="100%" y2="100%">
      <stop offset="0%" style="stop-color:#d4af37" />
      <stop offset="100%" style="stop-color:#fbbf24" />
    </linearGradient>
    <linearGradient id="diversityGradient3" x1="0%" y1="0%" x2="100%" y2="100%">
      <stop offset="0%" style="stop-color:#059669" />
      <stop offset="100%" style="stop-color:#10b981" />
    </linearGradient>
  </defs>
  
  <!-- Background -->
  <rect width="400" height="300" fill="#f8f9fa"/>
  
  <!-- Diverse fashion silhouettes representing different styles and cultures -->
  
  <!-- Figure 1 - European style -->
  <g transform="translate(50, 80)">
    <path d="M20 30 Q30 20 40 30 L38 60 Q40 80 38 100 L35 130 Q32 140 28 140 Q25 140 22 130 L20 100 Q18 80 20 60 Z" fill="url(#diversityGradient1)"/>
    <!-- Hair -->
    <ellipse cx="30" cy="25" rx="12" ry="15" fill="#8b5cf6"/>
    <!-- Face -->
    <circle cx="30" cy="35" r="8" fill="#fde68a"/>
  </g>
  
  <!-- Figure 2 - African style -->
  <g transform="translate(150, 70)">
    <path d="M20 30 Q30 20 40 30 L38 60 Q40 80 38 105 L35 135 Q32 145 28 145 Q25 145 22 135 L20 105 Q18 80 20 60 Z" fill="url(#diversityGradient2)"/>
    <!-- Hair/headwrap -->
    <ellipse cx="30" cy="25" rx="15" ry="18" fill="#dc2626"/>
    <rect x="20" y="15" width="20" height="15" fill="#dc2626" rx="3"/>
    <!-- Face -->
    <circle cx="30" cy="35" r="8" fill="#92400e"/>
  </g>
  
  <!-- Figure 3 - Asian style -->
  <g transform="translate(250, 85)">
    <path d="M20 30 Q30 20 40 30 L38 60 Q40 80 38 100 L35 130 Q32 140 28 140 Q25 140 22 130 L20 100 Q18 80 20 60 Z" fill="url(#diversityGradient3)"/>
    <!-- Hair -->
    <ellipse cx="30" cy="25" rx="10" ry="12" fill="#1f2937"/>
    <!-- Face -->
    <circle cx="30" cy="35" r="8" fill="#fef3c7"/>
  </g>
  
  <!-- Figure 4 - Contemporary style -->
  <g transform="translate(320, 75)">
    <path d="M15 30 Q25 20 35 30 L33 60 Q35 80 33 100 L30 130 Q27 140 23 140 Q20 140 17 130 L15 100 Q13 80 15 60 Z" fill="#7c3aed"/>
    <!-- Short hair -->
    <ellipse cx="25" cy="25" rx="8" ry="10" fill="#f59e0b"/>
    <!-- Face -->
    <circle cx="25" cy="35" r="7" fill="#fecaca"/>
  </g>
  
  <!-- Cultural patterns and symbols -->
  
  <!-- African-inspired pattern -->
  <g transform="translate(100, 200)" opacity="0.6">
    <circle cx="0" cy="0" r="15" fill="none" stroke="#dc2626" stroke-width="3"/>
    <polygon points="-8,-8 8,-8 8,8 -8,8" fill="#fbbf24" opacity="0.7"/>
    <circle cx="0" cy="0" r="5" fill="#dc2626"/>
  </g>
  
  <!-- Asian-inspired pattern -->
  <g transform="translate(200, 210)" opacity="0.6">
    <rect x="-10" y="-10" width="20" height="20" fill="none" stroke="#1e3a8a" stroke-width="2" rx="5"/>
    <circle cx="0" cy="0" r="6" fill="#d4af37"/>
    <circle cx="0" cy="0" r="3" fill="#1e3a8a"/>
  </g>
  
  <!-- European-inspired pattern -->
  <g transform="translate(300, 205)" opacity="0.6">
    <polygon points="0,-12 8,0 0,12 -8,0" fill="#7c3aed"/>
    <polygon points="0,-8 5,0 0,8 -5,0" fill="#a855f7"/>
  </g>
  
  <!-- Unity symbols -->
  <!-- Interlocking circles representing unity in diversity -->
  <g transform="translate(200, 50)" opacity="0.4">
    <circle cx="-15" cy="0" r="12" fill="none" stroke="url(#diversityGradient1)" stroke-width="3"/>
    <circle cx="0" cy="0" r="12" fill="none" stroke="url(#diversityGradient2)" stroke-width="3"/>
    <circle cx="15" cy="0" r="12" fill="none" stroke="url(#diversityGradient3)" stroke-width="3"/>
  </g>
  
  <!-- Global fashion elements -->
  <!-- Fashion accessories from different cultures -->
  
  <!-- Jewelry/accessories -->
  <g transform="translate(80, 250)">
    <!-- Earrings -->
    <circle cx="0" cy="0" r="4" fill="url(#diversityGradient2)"/>
    <ellipse cx="0" cy="8" rx="3" ry="6" fill="url(#diversityGradient2)"/>
    
    <circle cx="20" cy="0" r="4" fill="url(#diversityGradient1)"/>
    <rect x="17" y="5" width="6" height="8" fill="url(#diversityGradient1)" rx="2"/>
    
    <circle cx="40" cy="0" r="4" fill="url(#diversityGradient3)"/>
    <polygon points="40,6 37,12 43,12" fill="url(#diversityGradient3)"/>
  </g>
  
  <!-- Fabric textures/patterns -->
  <g opacity="0.3">
    <!-- Stripes -->
    <g transform="translate(50, 180)">
      <rect x="0" y="0" width="30" height="4" fill="#dc2626"/>
      <rect x="0" y="6" width="30" height="4" fill="#fbbf24"/>
      <rect x="0" y="12" width="30" height="4" fill="#1e3a8a"/>
    </g>
    
    <!-- Dots -->
    <g transform="translate(320, 180)">
      <circle cx="0" cy="0" r="2" fill="#7c3aed"/>
      <circle cx="8" cy="4" r="2" fill="#d4af37"/>
      <circle cx="4" cy="8" r="2" fill="#059669"/>
      <circle cx="12" cy="0" r="2" fill="#dc2626"/>
    </g>
  </g>
  
  <!-- Connecting lines showing unity -->
  <g stroke="#d4af37" stroke-width="2" fill="none" opacity="0.3">
    <path d="M70 150 Q150 140 230 150 Q280 155 340 150"/>
    <path d="M70 160 Q150 170 230 160 Q280 165 340 160"/>
  </g>
  
  <!-- Cultural symbols -->
  <g opacity="0.5">
    <!-- Lotus-inspired -->
    <g transform="translate(150, 260)">
      <ellipse cx="0" cy="0" rx="8" ry="4" fill="#7c3aed"/>
      <ellipse cx="0" cy="0" rx="6" ry="3" fill="#a855f7"/>
      <ellipse cx="0" cy="0" rx="4" ry="2" fill="#c084fc"/>
    </g>
    
    <!-- Sun symbol -->
    <g transform="translate(250, 260)">
      <circle cx="0" cy="0" r="6" fill="#fbbf24"/>
      <g stroke="#f59e0b" stroke-width="1">
        <line x1="-10" y1="0" x2="-8" y2="0"/>
        <line x1="8" y1="0" x2="10" y2="0"/>
        <line x1="0" y1="-10" x2="0" y2="-8"/>
        <line x1="0" y1="8" x2="0" y2="10"/>
        <line x1="-7" y1="-7" x2="-6" y2="-6"/>
        <line x1="6" y1="6" x2="7" y2="7"/>
        <line x1="7" y1="-7" x2="6" y2="-6"/>
        <line x1="-6" y1="6" x2="-7" y2="7"/>
      </g>
    </g>
  </g>
</svg>